<?xml version="1.0" encoding="UTF-8"?><svg id="Ebene_2" xmlns="http://www.w3.org/2000/svg" viewBox="0 0 681.06 281.58"><defs><style>.cls-1{fill:#deb22c;}.cls-1,.cls-2{stroke-width:0px;}.cls-2{fill:#fff;}</style></defs><g id="Ebene_1-2"><path class="cls-2" d="m111.51,191.54h-25.71v52.82c0,22.03,12.8,35.19,39.26,35.19s39.26-13.53,39.26-35.19v-52.82h-52.81Zm111.62,19.04l10.39-15.11c-17.75-12.2-42.02-7.7-54.22,10.05-12.15,17.68-7.72,41.84,9.86,54.08l-10.39,15.11c17.75,12.2,42.02,7.69,54.22-10.05,12.15-17.68,7.73-41.84-9.86-54.08Zm-160.47,21.21v-.37c7.38-3.2,10.95-8.49,10.95-16.87,0-7.26-3.08-13.29-8.37-17.35-4.68-3.57-11.07-5.66-19.69-5.66H0v88h46.41c9.11,0,16-1.85,21.29-5.54,6.27-4.43,10.09-11.56,10.09-21.05,0-9.98-5.54-18.1-15.13-21.17ZM209.66,80.21c-25.03,0-45.31,20.29-45.31,45.31s20.29,45.31,45.31,45.31,45.31-20.28,45.31-45.31-20.29-45.31-45.31-45.31Zm38.47,151.69h18.36v47.82h44.31v-47.82h18.36v-40.35h-81.03v40.35Zm60.22-61.07c12.63,0,24.05-5.16,32.26-13.49l-31.87-31.87,31.87-31.75c-8.22-8.33-19.64-13.49-32.26-13.49-25.03,0-45.31,20.29-45.31,45.31s20.29,45.31,45.31,45.31Zm-240.65-6.84c6.27-4.43,10.09-11.56,10.09-21.05,0-9.98-5.54-18.1-15.13-21.17v-.37c7.38-3.2,10.95-8.49,10.95-16.87,0-7.26-3.08-13.29-8.37-17.35-4.67-3.57-11.07-5.66-19.69-5.66H0v88h46.41c9.11,0,16-1.85,21.29-5.53Zm87.69-34.69h-24.75v-47.77h-44.65v88h69.39v-40.23Zm247.47-3.9l32.82-43.94h-82.12v88h82.12l-32.82-44.06Zm110.01-53.43c-37.58,0-68.05,30.47-68.05,68.05s30.47,68.05,68.05,68.05,68.05-30.47,68.05-68.05-30.47-68.05-68.05-68.05Zm0,120.98c-29.23,0-52.93-23.7-52.93-52.93s23.7-52.93,52.93-52.93,52.93,23.7,52.93,52.93-23.7,52.93-52.93,52.93Zm53.55,20.33c-6.54,0-11.84,5.3-11.84,11.84s5.3,11.84,11.84,11.84,11.84-5.3,11.84-11.84-5.3-11.84-11.84-11.84Zm-228.06-21.73v88.17h78.3l-19.99-26.89,17.12-17.19-17.16-17.23,20.03-26.86h-78.3ZM632.34,46.24c-1.66-1.24-4.03-.92-5.29.76-10.07,13.43-17.02,13.62-25.06,13.84-9.13.24-19.49.56-33.19,17.89l-5.35-5.35c-2.95-2.95-7.74-2.95-10.69,0l-1.54,1.54c11.02,6.51,20.23,15.71,26.73,26.73l1.54-1.54c2.95-2.95,2.95-7.74,0-10.69l-5.4-5.4c.11-.11.26-.16.36-.29,11.67-14.9,19.47-15.12,27.73-15.34,8.74-.23,18.65-.49,30.92-16.86,1.25-1.67.91-4.04-.76-5.29Zm-138.18,59.92c-8.35,0-15.12,6.77-15.12,15.12s6.77,15.12,15.12,15.12,15.12-6.77,15.12-15.12-6.77-15.12-15.12-15.12Zm8.5,121.15c0-4.6-.88-8.99-2.46-13.03-16.56-2.8-31.27-11-42.28-22.73h-33.45v88.2h77.43l-12.97-24.28c8.35-6.55,13.72-16.72,13.72-28.15Zm31.11,3.45h-22.32v48.95h34.7v-20.41h-12.37v-28.54Zm21.52,48.95h22.25v-32.97h-22.25v32.97Z"/><path class="cls-1" d="m653.67,2.12c-1.87-.92-4.14-.18-5.07,1.69l-13.43,26.86c-.93,1.87-.18,4.14,1.69,5.07.55.27,1.12.4,1.69.4,1.38,0,2.72-.77,3.38-2.09l13.43-26.86c.93-1.87.18-4.14-1.69-5.07Zm-37.69.47c-.66-1.98-2.81-3.06-4.78-2.39s-3.05,2.81-2.39,4.79l9.48,28.46c.53,1.58,2.01,2.58,3.59,2.58.4,0,.8-.06,1.2-.19,1.98-.66,3.05-2.81,2.39-4.79l-9.48-28.46Zm64.89,34.79c-.66-1.98-2.81-3.05-4.79-2.39l-28.33,9.44c-1.98.66-3.05,2.81-2.39,4.78.53,1.58,2.01,2.58,3.59,2.58.4,0,.8-.06,1.2-.19l28.33-9.44c1.98-.66,3.05-2.81,2.39-4.78Z"/></g></svg>